#!OML:ASF F:\VICON\USERDATA\INSTALL\rory3\rory3.ASF
:FULLY-SPECIFIED
:DEGREES
1377
root -0.765914 17.8991 1.36059 7.74475 0.618581 5.28178
lowerback 8.97528 1.7216 2.82558
upperback 1.67125 2.77964 5.98048
thorax -3.46421 1.37705 4.31646
lowerneck -28.501 -9.50406 -11.6667
upperneck 7.69659 -9.93567 9.59361
head 7.91311 -4.15207 3.5988
rclavicle -1.35174e-014 -3.18055e-015
rhumerus 0.912709 2.52246 -40.803
rradius 43.5258
rwrist 41.7007
rhand -63.817 7.07389
rfingers 7.12502
rthumb -35.7776 -19.297
lclavicle -1.35174e-014 -3.18055e-015
lhumerus -40.8449 4.96383 69.4511
lradius 53.5479
lwrist -8.09648
lhand -16.7634 20.1612
lfingers 7.12502
lthumb 9.46362 49.9287
rfemur -19.9885 -3.07709 14.777
rtibia 35.238
rfoot -20.4462 -5.94762
rtoes 6.10136
lfemur -6.97149 -5.60356 -11.9429
ltibia 14.8707
lfoot -2.87265 8.52651
ltoes -31.3888
1378
root -0.746751 17.8967 1.35609 7.69241 0.971643 5.10738
lowerback 8.99796 1.6319 2.90689
upperback 1.67882 2.67192 6.03386
thorax -3.46181 1.32318 4.33971
lowerneck -28.3969 -9.29779 -11.5159
upperneck 7.58999 -9.68979 9.41951
head 7.81771 -4.05264 3.56053
rclavicle -3.18055e-015 1.27222e-014
rhumerus 1.13629 1.64663 -40.2528
rradius 43.855
rwrist 40.5338
rhand -63.8049 5.65095
rfingers 7.12502
rthumb -35.766 -20.7227
lclavicle -3.18055e-015 1.27222e-014
lhumerus -41.028 4.96397 69.4812
lradius 53.7212
lwrist -7.9251
lhand -16.84 20.2154
lfingers 7.12502
lthumb 9.38975 49.9863
rfemur -19.8689 -3.2913 14.9416
rtibia 35.2329
rfoot -20.535 -6.05908
rtoes 5.99841
lfemur -6.83088 -5.58972 -11.7703
ltibia 14.5563
lfoot -2.84447 8.23718
ltoes -31.1267
1379
root -0.725517 17.8961 1.35469 7.57718 1.41589 4.97561
lowerback 9.03225 1.52245 3.03002
upperback 1.72874 2.53768 6.03733
thorax -3.41602 1.25531 4.28971
lowerneck -28.4261 -9.13111 -11.482
upperneck 7.58772 -9.47655 9.43133
head 7.79909 -3.94869 3.59524
rclavicle -3.33958e-014 -6.36111e-014
rhumerus 1.39493 0.718897 -39.6032
rradius 44.2772
rwrist 39.0792
rhand -63.6774 5.09101
rfingers 7.12502
rthumb -35.6452 -21.3119
lclavicle -3.33958e-014 -6.36111e-014
lhumerus -40.9104 4.94854 69.4855
lradius 53.6024
lwrist -7.81609
lhand -16.8206 20.0545
lfingers 7.12502
lthumb 9.40847 49.8245
rfemur -19.6119 -3.52527 15.0579
rtibia 35.1623
rfoot -20.6576 -6.24547
rtoes 5.69337
lfemur -6.71372 -5.63868 -11.6466
ltibia 14.3689
lfoot -2.85943 8.01445
ltoes -30.4772
1380
root -0.704002 17.9005 1.35554 7.65119 1.60215 4.9461
lowerback 8.87705 1.51304 3.00432
upperback 1.72916 2.5107 5.99169
thorax -3.32657 1.24244 4.26223
lowerneck -28.5954 -8.99615 -11.5357
upperneck 7.74788 -9.27836 9.50595
head 7.86559 -3.84335 3.65944
rclavicle -3.57812e-014 -6.36111e-014
rhumerus 1.80303 -0.414021 -38.94
rradius 44.6072
rwrist 37.769
rhand -63.3591 5.13945
rfingers 7.12502
rthumb -35.3435 -21.3357
lclavicle -3.57812e-014 -6.36111e-014
lhumerus -40.7292 4.84967 69.5217
lradius 53.4231
lwrist -7.83253
lhand -16.975 19.9326
lfingers 7.12502
lthumb 9.25945 49.7092
rfemur -19.5907 -3.62632 15.0299
rtibia 35.0729
rfoot -20.68 -6.35907
rtoes 5.59771
lfemur -6.83009 -5.85259 -11.6395
ltibia 14.2294
lfoot -3.0055 8.3135
ltoes -28.4364
1381
root -0.684703 17.9064 1.35537 7.81099 1.59649 4.96467
lowerback 8.61509 1.57407 2.82374
upperback 1.72288 2.55611 5.92999
thorax -3.19453 1.26719 4.29908
lowerneck -28.5773 -8.82487 -11.5213
upperneck 7.72069 -9.05825 9.53151
head 7.83242 -3.7369 3.70381
rclavicle 3.81667e-014 -6.36111e-015
rhumerus 2.34912 -1.73783 -38.3176
rradius 44.8341
rwrist 36.8855
rhand -63.2339 4.2962
rfingers 7.12502
rthumb -35.2248 -22.2071
lclavicle 3.81667e-014 -6.36111e-015
lhumerus -40.6982 4.75912 69.558
lradius 53.3982
lwrist -7.77303
lhand -17.084 20.0104
lfingers 7.12502
lthumb 9.15431 49.7917
rfemur -19.7269 -3.58868 14.9199
rtibia 35.0217
rfoot -20.6557 -6.38421
rtoes 5.40424
lfemur -6.93989 -5.99749 -11.7186
ltibia 14.0549
lfoot -3.24247 8.6411
ltoes -27.0445
1382
root -0.66445 17.9032 1.35102 7.90193 1.81079 4.96133
lowerback 8.48699 1.57012 2.69453
upperback 1.66507 2.53369 5.87644
thorax -3.18518 1.25768 4.32035
lowerneck -28.4766 -8.657 -11.4251
upperneck 7.70527 -8.87374 9.49756
head 7.78785 -3.65286 3.70986
rclavicle -9.54166e-015 -6.36111e-014
rhumerus 2.88498 -2.8328 -37.5839
rradius 45.0736
rwrist 35.7865
rhand -63.6216 2.98522
rfingers 7.12502
rthumb -35.5923 -23.4304
lclavicle -9.54166e-015 -6.36111e-014
lhumerus -40.8249 4.67758 69.5625
lradius 53.5431
lwrist -7.80838
lhand -16.8544 20.2382
lfingers 7.12502
lthumb 9.37586 50.0097
rfemur -19.7825 -3.69403 14.863
rtibia 35
rfoot -20.6546 -6.47413
rtoes 5.38497
lfemur -6.97063 -5.98581 -11.8028
ltibia 13.9071
lfoot -3.38967 8.51201
ltoes -27.8032
1383
root -0.643511 17.8939 1.34255 7.94626 2.06706 4.84083
lowerback 8.50453 1.54968 2.66686
upperback 1.56313 2.51193 5.85352
thorax -3.30008 1.24754 4.31309
lowerneck -28.4894 -8.4639 -11.1689
upperneck 7.79622 -8.67998 9.30172
head 7.77868 -3.57173 3.63469
rclavicle 9.54166e-015 1.90833e-014
rhumerus 3.51355 -3.88332 -36.8393
rradius 45.3128
rwrist 34.4469
rhand -64.0549 2.80205
rfingers 7.12502
rthumb -36.003 -23.5137
lclavicle 9.54166e-015 1.90833e-014
lhumerus -41.0049 4.56217 69.5443
lradius 53.6728
lwrist -7.88768
lhand -16.6813 20.2501
lfingers 7.12502
lthumb 9.54282 50.014
rfemur -19.814 -3.86379 14.952
rtibia 34.9889
rfoot -20.6973 -6.52392
rtoes 5.57349
lfemur -7.02891 -5.8201 -11.744
ltibia 13.7567
lfoot -3.42429 8.20183
ltoes -28.8627
1384
root -0.623803 17.8871 1.33871 7.79672 2.38993 4.57101
lowerback 8.55694 1.50421 2.80676
upperback 1.60521 2.46544 5.86591
thorax -3.27746 1.22296 4.25165
lowerneck -28.4679 -8.27816 -10.9072
upperneck 7.72727 -8.4932 9.11727
head 7.71205 -3.49413 3.56223
rclavicle 4.6118e-014 2.22639e-014
rhumerus 4.23654 -5.20947 -36.1004
rradius 45.566
rwrist 33.3454
rhand -63.8772 3.54224
rfingers 7.12502
rthumb -35.8346 -22.8147
lclavicle 4.6118e-014 2.22639e-014
lhumerus -40.9706 4.47785 69.5511
lradius 53.7222
lwrist -7.80833
lhand -16.5922 20.81
lfingers 7.12502
lthumb 9.62878 50.57
rfemur -19.5939 -4.01514 15.1986
rtibia 34.959
rfoot -20.8787 -6.5384
rtoes 6.34193
lfemur -6.87711 -5.79617 -11.4897
ltibia 13.5941
lfoot -3.57478 7.94225
ltoes -28.6156
1385
root -0.602979 17.8838 1.34283 7.44878 3.03399 4.43045
lowerback 8.64013 1.3567 2.94195
upperback 1.73347 2.27778 5.83063
thorax -3.17296 1.12823 4.15876
lowerneck -28.3982 -8.13892 -10.8125
upperneck 7.59785 -8.34559 9.15028
head 7.64213 -3.41997 3.5846
rclavicle -2.78299e-014 -5.40694e-014
rhumerus 4.90564 -6.68336 -35.3305
rradius 45.8524
rwrist 32.5099
rhand -63.2782 4.52463
rfingers 7.12502
rthumb -35.2667 -21.9687
lclavicle -2.78299e-014 -5.40694e-014
lhumerus -40.76 4.50616 69.5471
lradius 53.7339
lwrist -7.89099
lhand -16.191 21.2999
lfingers 7.12502
lthumb 10.0159 51.0416
rfemur -19.0115 -4.36839 15.3229
rtibia 34.887
rfoot -21.1047 -6.69329
rtoes 6.36445
lfemur -6.51137 -6.11773 -11.3578
ltibia 13.4632
lfoot -3.8305 7.67457
ltoes -28.1495
